<svg xmlns="http://www.w3.org/2000/svg" width="1200" height="630" viewBox="0 0 1200 630">
  <defs>
    <linearGradient id="background" x1="70" y1="20" x2="1130" y2="610" gradientUnits="userSpaceOnUse">
      <stop stop-color="#111827"/>
      <stop offset="1" stop-color="#090D18"/>
    </linearGradient>
    <linearGradient id="accent" x1="106" y1="158" x2="314" y2="366" gradientUnits="userSpaceOnUse">
      <stop stop-color="#7C9BFF"/>
      <stop offset="1" stop-color="#7657E8"/>
    </linearGradient>
    <radialGradient id="glow" cx="0" cy="0" r="1" gradientTransform="translate(1010 60) rotate(132) scale(560 460)" gradientUnits="userSpaceOnUse">
      <stop stop-color="#6D8DFF" stop-opacity=".28"/>
      <stop offset="1" stop-color="#6D8DFF" stop-opacity="0"/>
    </radialGradient>
    <filter id="shadow" x="40" y="80" width="340" height="340" filterUnits="userSpaceOnUse">
      <feDropShadow dx="0" dy="20" stdDeviation="24" flood-color="#000" flood-opacity=".35"/>
    </filter>
  </defs>
  <rect width="1200" height="630" fill="url(#background)"/>
  <rect width="1200" height="630" fill="url(#glow)"/>
  <path d="M0 520C250 455 410 602 658 535c247-67 339-220 542-170v265H0V520Z" fill="#151D33" opacity=".55"/>
  <g opacity=".18" stroke="#91A6FF">
    <path d="M720 96h352M720 142h286M720 188h318"/>
  </g>
  <g filter="url(#shadow)">
    <rect x="80" y="124" width="260" height="260" rx="64" fill="#151D30" stroke="#293552" stroke-width="2"/>
    <path d="M276 206c-16-20-40-32-68-32-48 0-88 39-88 86s40 86 88 86c28 0 52-12 68-32l-34-26a45 45 0 1 1 0-56l34-26Z" fill="url(#accent)"/>
    <circle cx="280" cy="260" r="18" fill="#F8FAFC"/>
  </g>
  <text x="410" y="238" fill="#F8FAFC" font-family="Inter, ui-sans-serif, system-ui, -apple-system, sans-serif" font-size="82" font-weight="750" letter-spacing="-3">Compact UI</text>
  <text x="414" y="302" fill="#AEB9D0" font-family="Inter, ui-sans-serif, system-ui, -apple-system, sans-serif" font-size="30" font-weight="500">UI-компоненты для Vue 3</text>
  <g transform="translate(414 350)">
    <rect width="222" height="54" rx="27" fill="#6D8DFF"/>
    <text x="111" y="35" text-anchor="middle" fill="#FFFFFF" font-family="Inter, ui-sans-serif, system-ui, sans-serif" font-size="20" font-weight="700">TypeScript</text>
    <rect x="238" width="238" height="54" rx="27" fill="#1B263E" stroke="#344466"/>
    <text x="357" y="35" text-anchor="middle" fill="#DCE4F5" font-family="Inter, ui-sans-serif, system-ui, sans-serif" font-size="20" font-weight="650">Настраиваемая</text>
  </g>
  <text x="82" y="554" fill="#73809B" font-family="Inter, ui-sans-serif, system-ui, sans-serif" font-size="20" font-weight="550" letter-spacing="1.5">DOCUMENTATION · v0.3.0</text>
</svg>